<mxfile host="app.diagrams.net" agent="Mozilla/5.0 (X11; Linux x86_64) AppleWebKit/537.36 (KHTML, like Gecko) Chrome/134.0.0.0 Safari/537.36" version="26.0.16">
  <diagram name="PÃ¡gina-1" id="89T3Z1b50TnQ_8dmw2eX">
    <mxGraphModel dx="1434" dy="820" grid="1" gridSize="10" guides="1" tooltips="1" connect="1" arrows="1" fold="1" page="1" pageScale="1" pageWidth="827" pageHeight="1169" math="0" shadow="0">
      <root>
        <mxCell id="0" />
        <mxCell id="1" parent="0" />
        <mxCell id="43UThpFz7Zo18nV1CaWb-1" value="&lt;span style=&quot;&quot;&gt;&lt;font face=&quot;Helvetica&quot;&gt;service-product&lt;/font&gt;&lt;/span&gt;" style="rounded=1;whiteSpace=wrap;html=1;fontSize=14;fontStyle=1" vertex="1" parent="1">
          <mxGeometry x="80" y="200" width="160" height="40" as="geometry" />
        </mxCell>
        <mxCell id="43UThpFz7Zo18nV1CaWb-3" value="&lt;b style=&quot;&quot;&gt;&lt;font face=&quot;Helvetica&quot;&gt;service-gateway&lt;/font&gt;&lt;/b&gt;" style="rounded=1;whiteSpace=wrap;html=1;fontSize=14;" vertex="1" parent="1">
          <mxGeometry x="80" y="480" width="160" height="40" as="geometry" />
        </mxCell>
        <mxCell id="43UThpFz7Zo18nV1CaWb-4" value="&lt;b style=&quot;&quot;&gt;&lt;font face=&quot;Helvetica&quot;&gt;service-query&lt;/font&gt;&lt;/b&gt;" style="rounded=1;whiteSpace=wrap;html=1;fontSize=14;" vertex="1" parent="1">
          <mxGeometry x="80" y="760" width="160" height="40" as="geometry" />
        </mxCell>
        <mxCell id="43UThpFz7Zo18nV1CaWb-8" value="Models" style="swimlane;fontStyle=0;childLayout=stackLayout;horizontal=1;startSize=30;horizontalStack=0;resizeParent=1;resizeParentMax=0;resizeLast=0;collapsible=1;marginBottom=0;whiteSpace=wrap;html=1;" vertex="1" parent="1">
          <mxGeometry x="80" y="300" width="160" height="90" as="geometry" />
        </mxCell>
        <mxCell id="43UThpFz7Zo18nV1CaWb-9" value="events.sql" style="text;strokeColor=none;fillColor=none;align=left;verticalAlign=middle;spacingLeft=4;spacingRight=4;overflow=hidden;points=[[0,0.5],[1,0.5]];portConstraint=eastwest;rotatable=0;whiteSpace=wrap;html=1;" vertex="1" parent="43UThpFz7Zo18nV1CaWb-8">
          <mxGeometry y="30" width="160" height="30" as="geometry" />
        </mxCell>
        <mxCell id="43UThpFz7Zo18nV1CaWb-10" value="products.sql" style="text;strokeColor=none;fillColor=none;align=left;verticalAlign=middle;spacingLeft=4;spacingRight=4;overflow=hidden;points=[[0,0.5],[1,0.5]];portConstraint=eastwest;rotatable=0;whiteSpace=wrap;html=1;" vertex="1" parent="43UThpFz7Zo18nV1CaWb-8">
          <mxGeometry y="60" width="160" height="30" as="geometry" />
        </mxCell>
        <mxCell id="43UThpFz7Zo18nV1CaWb-7" value="" style="sketch=0;outlineConnect=0;fontColor=#232F3E;gradientColor=none;fillColor=#C925D1;strokeColor=none;dashed=0;verticalLabelPosition=bottom;verticalAlign=top;align=center;html=1;fontSize=12;fontStyle=0;aspect=fixed;pointerEvents=1;shape=mxgraph.aws4.rds_mysql_instance;" vertex="1" parent="1">
          <mxGeometry x="80" y="250" width="40" height="40" as="geometry" />
        </mxCell>
        <mxCell id="43UThpFz7Zo18nV1CaWb-13" value="" style="sketch=0;outlineConnect=0;fontColor=#232F3E;gradientColor=none;fillColor=#C925D1;strokeColor=none;dashed=0;verticalLabelPosition=bottom;verticalAlign=top;align=center;html=1;fontSize=12;fontStyle=0;aspect=fixed;pointerEvents=1;shape=mxgraph.aws4.rds_mysql_instance;" vertex="1" parent="1">
          <mxGeometry x="80" y="530" width="40" height="40" as="geometry" />
        </mxCell>
        <mxCell id="43UThpFz7Zo18nV1CaWb-14" value="Models" style="swimlane;fontStyle=0;childLayout=stackLayout;horizontal=1;startSize=30;horizontalStack=0;resizeParent=1;resizeParentMax=0;resizeLast=0;collapsible=1;marginBottom=0;whiteSpace=wrap;html=1;" vertex="1" parent="1">
          <mxGeometry x="80" y="580" width="160" height="90" as="geometry" />
        </mxCell>
        <mxCell id="43UThpFz7Zo18nV1CaWb-15" value="events.sql" style="text;strokeColor=none;fillColor=none;align=left;verticalAlign=middle;spacingLeft=4;spacingRight=4;overflow=hidden;points=[[0,0.5],[1,0.5]];portConstraint=eastwest;rotatable=0;whiteSpace=wrap;html=1;" vertex="1" parent="43UThpFz7Zo18nV1CaWb-14">
          <mxGeometry y="30" width="160" height="30" as="geometry" />
        </mxCell>
        <mxCell id="43UThpFz7Zo18nV1CaWb-16" value="products.sql" style="text;strokeColor=none;fillColor=none;align=left;verticalAlign=middle;spacingLeft=4;spacingRight=4;overflow=hidden;points=[[0,0.5],[1,0.5]];portConstraint=eastwest;rotatable=0;whiteSpace=wrap;html=1;" vertex="1" parent="43UThpFz7Zo18nV1CaWb-14">
          <mxGeometry y="60" width="160" height="30" as="geometry" />
        </mxCell>
        <mxCell id="43UThpFz7Zo18nV1CaWb-17" value="" style="sketch=0;outlineConnect=0;fontColor=#232F3E;gradientColor=none;fillColor=#C925D1;strokeColor=none;dashed=0;verticalLabelPosition=bottom;verticalAlign=top;align=center;html=1;fontSize=12;fontStyle=0;aspect=fixed;pointerEvents=1;shape=mxgraph.aws4.rds_mysql_instance;" vertex="1" parent="1">
          <mxGeometry x="80" y="810" width="40" height="40" as="geometry" />
        </mxCell>
        <mxCell id="43UThpFz7Zo18nV1CaWb-19" value="" style="shape=image;verticalLabelPosition=bottom;labelBackgroundColor=default;verticalAlign=top;aspect=fixed;imageAspect=0;image=data:image/png,iVBORw0KGgoAAAANSUhEUgAAARgAAACcBAMAAABW9qnFAAAAMFBMVEUUpt/d4eJMTEyJiYr+ygAHdp/vTpf67qmqwcaQxjj+3VC53IL+0Qoku7EAAAD///+lFU2LAAAGjElEQVR4XuzVsUrDQBjA8Ru7aQZDFs0buPgKB0I5cOoDdAluLoGCCLEUxMm+RMFF6EscdDkIPoGoe+UWE0rlU+PhJc01oWDvKnz/OcOP7y7fEdih/h8GMYhBDGIQgxjEIAYxiEEMYhCDGMQgBjGIyQb3g2Q3MNkDpZyyWbIDmEtOxVecdxPnmAVn4ielcYjJeAFRGseYCROlUqeYRcUiWOISMxHVUgcY6UfRUA9Gxxxgou/6ALFYiafWMX5UFAIVq53axshIYTJWw1DbmHeFAQOGTy1jIpW6vw7OidRO6RyWol7XJkafUh+WhslwV5hY1OOJVYyvMBdmzNQRZmLCpE4wYyNGzKCxYHS7DUwIXIiN/+2j+QtskheEjRdYL2ALmOP5cxMmVxiwhHlrwkBwoxbw1jB5MGybjE5uGXM3f22fjE76fVhawLRM5rDjKdCVsIAZnYzXYz4IIYoTmyz87K8w7XtGkqLOeB2GJfYw14T8chbM+BpYw0iiM+6ZLkBuC7NPdCFw05ste4+WMKTUE8SmwRz0evX774VVjPSKwso3nhabMV5YxuRlzF590dAEPikxe9dGjjCMX4pAmpDo3ChFMtxuv0ZaDraSGpXujoVrwv0fIcXJIrBNbkhp0qZPGUJaQ9q4CFyzCI8aVetbm5BN4XvzzmpGz3ygtfRgIw2ImZ+e92tWbVmW35Kvy6xpkokLc9/slOy5zxJeqiQtdDVnjcpZBenF3JTOVO+SVsLCfHBhPouS5pp7zA8l6w25mjW95g7Mx8ZIGZrnZq1RG7xH0+uyBts8s7UEES2isu7KEtYE54jIGdaWtB5cgMyHucM30pIW5i8PZk3fL/yyNsb4WdNY3YbOAHH2BAxoAfPMEzN+t/Cf+v9hkCBObIKa0OiSXwDTLscj/lvxued6yRRpNa5W+TQlShKdHawUYXrXf2JU5VObM60PQ6RpLtyreGn02ssYababo7RBert72Q5PbcZ7gT1jGEkezXVf1laAsed0TXMHGJy13UVNDE7trgEeYNxioq+Xmsb8wrjQ/W4vu7cO9hznRjCz/pB3TDjoDO9yNwQjqavrm/43xguUtZV0AiFwQgBjMXB4DGPjOA9hfGN+rB2ahS5r6Asy+tgovIthvnkSxgS3EQMwgh5rrfea5peL6z+JXpbQ2tkXHh2GUQPOBB+IS/sTIo0CGqLH0tEbJMUWMOIADH9xOejMzIGJOzCxMZZGMM2vxhiECTFHKss4Z2wP3MghZzjPI5gvMSSphojVlzU0d2J+AGa8ynV3U7a/5nLImRjm0bB8zmVdOxKEskbO2IIuVpX+u/RgVrbpK4yMZHLImSyCYe2NaWtPgj74MBIwkAPDZIBxrhSCYmcOwbzd97vaV+iMAAyEBO7s4Vm/BJw6MmcQJwljYM3fHgwNw/CgUmmxFGhD4+mO5sXxzhD6na+1n8CvHZhNvhdZmMy9axm1fRqp452hzgyCUDf0ELYZxDxqLBylWyyhFdMcXU2st+h3A0kjKO4zgMH0jHtgI493hmn0IIglMSaD68w2hrnXZ8YwhjJ2Jh4HEBAOJM36aRiBJaTjd37UbLIKjMGIqj41LK/8fn8CTGthlOMMbl8RTFzWmAnjl9F1nLc5IUwt7qaD9xlYeRiGcbjdTAjCNgHMfCBnADNw03OiFIv+FTucJUGo4rCadDRi/3kpYSecYcc2J8C8p/+ufhMUS4+kuM+YtD7L+JQJtZacl7AzfDo4Debq6o8Ax3T+ohpV1So/tzCakBHOpmYe3askL6oq12gmWpvlqCrQp7gBNaneIxFHwNzQVwwT4+BJto8XZhOk8IBpwteaxcAT5SDMmn6/6vUTBcpiGOyt+H/DhADrNQsf/PEAPD8F5mcK9JCFMNh7Iy89GKWPAqzAbOuyE2AkYEJ1iSZJ0kLqlM0LYrVTe7NrR4K61TTRyKkko+e8VCkvcu/3GZUW4og+I/9v145RGIZhKICeQVuW4nP2BllM6Vh8is4ZcoYeRVOHEn4pDV1+YjpJGb5Gg+Fhy38wwm0tcLkZEc26Cz5YoS3/hl7x1dJixw+2Mc8DYfDKwdQu5hqLWXYC+FtzCKbbwY8fpsRifBNzppYJwaB2AniOxiz7AdwQjQFjAP9oWonHVG4ZANN0B8Ix/J5K5ghupYPJw9D3TBqGU/iCXAxOdEmJGFSyJGIw0B0lYuDDONoxR/2FEUYYYYQRRhhhhBFGGGGEEUYYYYQRRpg3NZvW7gG7UeMAAAAASUVORK5CYII=;" vertex="1" parent="1">
          <mxGeometry x="130" y="810" width="71.79" height="40" as="geometry" />
        </mxCell>
        <mxCell id="43UThpFz7Zo18nV1CaWb-20" value="" style="shape=image;verticalLabelPosition=bottom;labelBackgroundColor=default;verticalAlign=top;aspect=fixed;imageAspect=0;image=data:image/png,iVBORw0KGgoAAAANSUhEUgAAARgAAACcBAMAAABW9qnFAAAAMFBMVEUUpt/d4eJMTEyJiYr+ygAHdp/vTpf67qmqwcaQxjj+3VC53IL+0Qoku7EAAAD///+lFU2LAAAGjElEQVR4XuzVsUrDQBjA8Ru7aQZDFs0buPgKB0I5cOoDdAluLoGCCLEUxMm+RMFF6EscdDkIPoGoe+UWE0rlU+PhJc01oWDvKnz/OcOP7y7fEdih/h8GMYhBDGIQgxjEIAYxiEEMYhCDGMQgBjGIyQb3g2Q3MNkDpZyyWbIDmEtOxVecdxPnmAVn4ielcYjJeAFRGseYCROlUqeYRcUiWOISMxHVUgcY6UfRUA9Gxxxgou/6ALFYiafWMX5UFAIVq53axshIYTJWw1DbmHeFAQOGTy1jIpW6vw7OidRO6RyWol7XJkafUh+WhslwV5hY1OOJVYyvMBdmzNQRZmLCpE4wYyNGzKCxYHS7DUwIXIiN/+2j+QtskheEjRdYL2ALmOP5cxMmVxiwhHlrwkBwoxbw1jB5MGybjE5uGXM3f22fjE76fVhawLRM5rDjKdCVsIAZnYzXYz4IIYoTmyz87K8w7XtGkqLOeB2GJfYw14T8chbM+BpYw0iiM+6ZLkBuC7NPdCFw05ste4+WMKTUE8SmwRz0evX774VVjPSKwso3nhabMV5YxuRlzF590dAEPikxe9dGjjCMX4pAmpDo3ChFMtxuv0ZaDraSGpXujoVrwv0fIcXJIrBNbkhp0qZPGUJaQ9q4CFyzCI8aVetbm5BN4XvzzmpGz3ygtfRgIw2ImZ+e92tWbVmW35Kvy6xpkokLc9/slOy5zxJeqiQtdDVnjcpZBenF3JTOVO+SVsLCfHBhPouS5pp7zA8l6w25mjW95g7Mx8ZIGZrnZq1RG7xH0+uyBts8s7UEES2isu7KEtYE54jIGdaWtB5cgMyHucM30pIW5i8PZk3fL/yyNsb4WdNY3YbOAHH2BAxoAfPMEzN+t/Cf+v9hkCBObIKa0OiSXwDTLscj/lvxued6yRRpNa5W+TQlShKdHawUYXrXf2JU5VObM60PQ6RpLtyreGn02ssYababo7RBert72Q5PbcZ7gT1jGEkezXVf1laAsed0TXMHGJy13UVNDE7trgEeYNxioq+Xmsb8wrjQ/W4vu7cO9hznRjCz/pB3TDjoDO9yNwQjqavrm/43xguUtZV0AiFwQgBjMXB4DGPjOA9hfGN+rB2ahS5r6Asy+tgovIthvnkSxgS3EQMwgh5rrfea5peL6z+JXpbQ2tkXHh2GUQPOBB+IS/sTIo0CGqLH0tEbJMUWMOIADH9xOejMzIGJOzCxMZZGMM2vxhiECTFHKss4Z2wP3MghZzjPI5gvMSSphojVlzU0d2J+AGa8ynV3U7a/5nLImRjm0bB8zmVdOxKEskbO2IIuVpX+u/RgVrbpK4yMZHLImSyCYe2NaWtPgj74MBIwkAPDZIBxrhSCYmcOwbzd97vaV+iMAAyEBO7s4Vm/BJw6MmcQJwljYM3fHgwNw/CgUmmxFGhD4+mO5sXxzhD6na+1n8CvHZhNvhdZmMy9axm1fRqp452hzgyCUDf0ELYZxDxqLBylWyyhFdMcXU2st+h3A0kjKO4zgMH0jHtgI493hmn0IIglMSaD68w2hrnXZ8YwhjJ2Jh4HEBAOJM36aRiBJaTjd37UbLIKjMGIqj41LK/8fn8CTGthlOMMbl8RTFzWmAnjl9F1nLc5IUwt7qaD9xlYeRiGcbjdTAjCNgHMfCBnADNw03OiFIv+FTucJUGo4rCadDRi/3kpYSecYcc2J8C8p/+ufhMUS4+kuM+YtD7L+JQJtZacl7AzfDo4Debq6o8Ax3T+ohpV1So/tzCakBHOpmYe3askL6oq12gmWpvlqCrQp7gBNaneIxFHwNzQVwwT4+BJto8XZhOk8IBpwteaxcAT5SDMmn6/6vUTBcpiGOyt+H/DhADrNQsf/PEAPD8F5mcK9JCFMNh7Iy89GKWPAqzAbOuyE2AkYEJ1iSZJ0kLqlM0LYrVTe7NrR4K61TTRyKkko+e8VCkvcu/3GZUW4og+I/9v145RGIZhKICeQVuW4nP2BllM6Vh8is4ZcoYeRVOHEn4pDV1+YjpJGb5Gg+Fhy38wwm0tcLkZEc26Cz5YoS3/hl7x1dJixw+2Mc8DYfDKwdQu5hqLWXYC+FtzCKbbwY8fpsRifBNzppYJwaB2AniOxiz7AdwQjQFjAP9oWonHVG4ZANN0B8Ix/J5K5ghupYPJw9D3TBqGU/iCXAxOdEmJGFSyJGIw0B0lYuDDONoxR/2FEUYYYYQRRhhhhBFGGGGEEUYYYYQRRpg3NZvW7gG7UeMAAAAASUVORK5CYII=;" vertex="1" parent="1">
          <mxGeometry x="130" y="530" width="71.79" height="40" as="geometry" />
        </mxCell>
      </root>
    </mxGraphModel>
  </diagram>
</mxfile>
